<svg xmlns="http://www.w3.org/2000/svg" viewBox="0 0 40 40"><defs></defs><title>6</title><g id="Layer_2" data-name="Layer 2"><path d="M15.22,32.6a7.28,7.28,0,0,1-6.07-3.2c-.92-1.33-2.32-5.26-1-10.64,1.25-5.22,3.68-7.76,7.65-8,3.44-.19,6.29,2.36,6.4,2.47l-.86,1s-2.6-2.31-5.47-2.14c-2.27.13-5.05,1.05-6.48,7A17,17,0,0,0,8.88,23l.1-.22a6.9,6.9,0,0,1,4.92-3.48,6.77,6.77,0,0,1,6.9,1.77,7,7,0,0,1,1.73,6.21,6,6,0,0,1-4.22,4.81A10.12,10.12,0,0,1,15.22,32.6Zm-5-3.88c1,1.43,3.32,3.54,7.68,2.14A4.75,4.75,0,0,0,21.27,27a5.68,5.68,0,0,0-1.4-5.07,5.53,5.53,0,0,0-5.67-1.41,5.7,5.7,0,0,0-4.07,2.8C9,25.57,10.08,28.31,10.24,28.72Z"/></g></svg>