<svg xmlns="http://www.w3.org/2000/svg" viewBox="0 0 40 40"><defs></defs><title>9</title><g id="Layer_2" data-name="Layer 2"><path d="M14.12,30.76a10.07,10.07,0,0,1-6-2.48l.86-1s2.6,2.32,5.47,2.14c2.27-.13,5.05-1.05,6.48-7a17,17,0,0,0,.48-3.92l-.1.22a6.91,6.91,0,0,1-4.92,3.48,6.77,6.77,0,0,1-6.9-1.77,7,7,0,0,1-1.73-6.21A6,6,0,0,1,12,9.44c5.4-1.73,8.21,1.3,9.16,2.68s2.32,5.26,1,10.64c-1.25,5.22-3.68,7.76-7.65,8Zm.94-20.56a8.86,8.86,0,0,0-2.71.46A4.75,4.75,0,0,0,9,14.5a5.68,5.68,0,0,0,1.4,5.07A5.53,5.53,0,0,0,16.07,21a5.7,5.7,0,0,0,4.07-2.8c1.1-2.24.06-5-.11-5.39A5.92,5.92,0,0,0,15.06,10.2Z"/></g></svg>