<svg id="Layer_2" data-name="Layer 2" xmlns="http://www.w3.org/2000/svg" viewBox="0 0 62.73 35.26"><defs></defs><title>play-pause</title><path d="M2.88,34.6A2.88,2.88,0,0,1,0,31.72V2.87A2.87,2.87,0,0,1,4.32.39l25,14.42a2.87,2.87,0,0,1,0,5l-25,14.42A2.85,2.85,0,0,1,2.88,34.6Zm2.88-7.85L22.11,17.3,5.75,7.85V26.74Z"/><path d="M60.35,0.49A2.38,2.38,0,0,0,58,2.87V31.73a2.38,2.38,0,0,0,4.75,0V2.87A2.38,2.38,0,0,0,60.35.49Z"/><path d="M47.47,0.49a2.38,2.38,0,0,0-2.37,2.38V31.73a2.38,2.38,0,1,0,4.75,0V2.87A2.38,2.38,0,0,0,47.47.49Z"/><path d="M41.5,1.53c-0.74-.23-1.65.59-2,1.82L31.21,30.43c-0.37,1.23-.08,2.41.67,2.64s1.65-.59,2-1.82L42.17,4.17C42.55,2.94,42.25,1.76,41.5,1.53Z"/></svg>