<svg xmlns="http://www.w3.org/2000/svg" viewBox="0 0 40 40"><defs></defs><title>Power Saver</title><g id="Layer_2" data-name="Layer 2"><path d="M20.41,39C14.87,39,9,35.37,9,28.72v-18C9,6,10.29,4.87,12.3,3.6l1-.62V6.51c0,1.41,2.54,3.46,7.13,3.46s7.13-2,7.13-3.46V3l1,.62c2,1.27,3.32,2.45,3.32,7.12v18C31.85,35.37,26,39,20.41,39ZM12,5.37c-1.12.9-1.74,2.09-1.74,5.35v18c0,6.52,6.23,9,10.15,9s10.15-2.43,10.15-9v-18c0-3.26-.62-4.46-1.74-5.36V6.51c0,2.28-3.22,4.74-8.41,4.74S12,8.79,12,6.51Zm8.25,3C17.51,8.34,16,7,16,5.71V4.37c0-1.29,1.47-2.67,4.2-2.67s4.2,1.37,4.2,2.67V5.71C24.45,7,23,8.34,20.24,8.34Zm0-5.36c-1.88,0-2.92.82-2.92,1.38V5.71c0,.57,1,1.35,2.92,1.35s2.92-.78,2.92-1.35V4.37C23.16,3.8,22.12,3,20.24,3Z"/><polygon points="24.59 14.98 16.33 23.71 19.76 25.01 16.33 32.59 24.77 23.37 21.14 22.34 24.59 14.98"/></g></svg>