<svg xmlns="http://www.w3.org/2000/svg" viewBox="0 0 40 40"><defs></defs><title>Timer</title><g id="Layer_2" data-name="Layer 2"><path d="M20,38A15.31,15.31,0,1,1,35.31,22.66,15.33,15.33,0,0,1,20,38ZM20,8.64a14,14,0,1,0,14,14A14,14,0,0,0,20,8.64Z"/><polygon class="cls-1" points="20.1 23.89 12.77 18.23 13.56 17.21 19.9 22.11 26.24 14.38 27.23 15.19 20.1 23.89"/><rect class="cls-1" x="13.03" y="2.52" width="14.8" height="1.28"/><rect class="cls-1" x="19.42" y="3.16" width="1.28" height="4.91"/><path class="cls-1" d="M32.54,15l-.91-.91,1.3-1.3a.86.86,0,0,0,0-1.2l-2.35-2.3a.86.86,0,0,0-1.21,0l-1.13,1.13-.91-.91,1.14-1.14a2.14,2.14,0,0,1,3,0l2.37,2.32a2.14,2.14,0,0,1,0,3Z"/></g></svg>